<svg width="78" height="57" viewBox="0 0 78 57" fill="none" xmlns="http://www.w3.org/2000/svg">
<path d="M0 38.3438C0 48.126 7.86094 56.0625 17.55 56.0625H62.4C71.0166 56.0625 78 49.0119 78 40.3125C78 32.6959 72.6375 26.3344 65.52 24.8824C66.0197 23.5658 66.3 22.1262 66.3 20.625C66.3 14.1035 61.0594 8.8125 54.6 8.8125C52.1991 8.8125 49.9566 9.55078 48.1041 10.8059C44.7281 4.89961 38.4272 0.9375 31.2 0.9375C20.4263 0.9375 11.7 9.74766 11.7 20.625C11.7 20.9572 11.7122 21.2895 11.7244 21.6217C4.89937 24.0457 0 30.6164 0 38.3438Z" fill="#FAFAFA"/>
</svg>
